<svg width="80" height="80" viewBox="0 0 80 80" fill="none" xmlns="http://www.w3.org/2000/svg">
<g id="Group">
<path id="Vector" d="M19.7622 61.6044C19.085 61.3505 18.3232 61.677 18.0611 62.3351C17.799 62.9932 18.1358 63.7333 18.8132 63.988C25.0734 66.3402 25.7461 74.3963 25.7704 77.4446H2.63842C2.66289 74.3952 3.336 66.3402 9.59577 63.988C10.2732 63.7333 10.6098 62.9934 10.3479 62.3351C10.086 61.677 9.32454 61.3494 8.64696 61.6044C-0.913928 65.1972 -0.00162092 78.2647 0.0418686 78.8192C0.0942889 79.4856 0.665671 80 1.35315 80H27.0556C27.7431 80 28.3147 79.4856 28.3669 78.8196C28.4104 78.2647 29.3231 65.1972 19.7622 61.6044Z" fill="black"/>
<path id="Vector_2" d="M62.2375 65.5566C62.9636 65.5566 63.5526 64.9845 63.5526 64.2791C63.5526 63.5735 62.9636 63.0012 62.2375 63.0012H51.8297C51.1036 63.0012 50.5145 63.5735 50.5145 64.2791V78.7224C50.5145 79.4278 51.1036 79.9999 51.8297 79.9999H62.2375C62.9636 79.9999 63.5526 79.4278 63.5526 78.7224V69.1187C63.5526 68.4131 62.9636 67.841 62.2375 67.841C61.5113 67.841 60.9223 68.4131 60.9223 69.1187V77.4447H53.1449V65.5568H62.2375V65.5566Z" fill="black"/>
<path id="Vector_3" d="M44.8085 48.3785C45.5348 48.3785 46.1237 47.8063 46.1237 47.1008C46.1237 46.3954 45.5348 45.8231 44.8085 45.8231H34.4007C33.6742 45.8231 33.0856 46.3954 33.0856 47.1008V78.7223C33.0856 79.4277 33.6742 79.9998 34.4007 79.9998H44.8085C45.5348 79.9998 46.1237 79.4277 46.1237 78.7223V52.0458C46.1237 51.3404 45.5348 50.7681 44.8085 50.7681C44.0824 50.7681 43.4933 51.3404 43.4933 52.0458V77.4444H35.7159V48.3783L44.8085 48.3785Z" fill="black"/>
<path id="Vector_4" d="M14.2042 60.1518C21.612 60.1518 27.6386 54.2973 27.6386 47.1008C27.6386 39.9042 21.612 34.0493 14.2042 34.0493C6.79666 34.0493 0.770264 39.9042 0.770264 47.1008C0.770264 54.2973 6.79666 60.1518 14.2042 60.1518ZM14.2042 36.6047C20.1617 36.6047 25.0081 41.3132 25.0081 47.1006C25.0081 52.8878 20.1615 57.5964 14.2042 57.5964C8.24715 57.5964 3.4006 52.8878 3.4006 47.1006C3.4006 41.3132 8.24715 36.6047 14.2042 36.6047Z" fill="black"/>
<path id="Vector_5" d="M54.2754 29.428V4.12904C54.2754 3.42342 53.6864 2.85134 52.9602 2.85134H44.2404V1.2777C44.2404 0.57208 43.6515 0 42.9252 0C42.1991 0 41.6103 0.57208 41.6103 1.2777V6.57542C41.6103 7.28085 42.1991 7.85312 42.9252 7.85312C43.6515 7.85312 44.2404 7.28085 44.2404 6.57542V5.40674H51.6451V12.6133H47.7116C46.9855 12.6133 46.3964 13.1856 46.3964 13.891C46.3964 14.5964 46.9855 15.1687 47.7116 15.1687H51.6451V29.428C51.6451 31.3506 50.0348 32.9146 48.0558 32.9146H25.7974C25.071 32.9146 24.4822 33.4869 24.4822 34.1923C24.4822 34.8978 25.071 35.47 25.7974 35.47H48.0558C51.4853 35.4702 54.2754 32.7596 54.2754 29.428Z" fill="black"/>
<path id="Vector_6" d="M11.7264 29.7814C12.4529 29.7814 13.0416 29.2093 13.0416 28.5038V15.1689H41.0653C41.7916 15.1689 42.3805 14.5966 42.3805 13.8912C42.3805 13.1858 41.7916 12.6135 41.0653 12.6135H13.0416V5.40677H16.7481C17.4746 5.40677 18.0633 4.83469 18.0633 4.12926C18.0633 3.42364 17.4744 2.85156 16.7481 2.85156H11.7264C10.9999 2.85156 10.4113 3.42364 10.4113 4.12926V28.504C10.4113 29.2093 10.9999 29.7814 11.7264 29.7814Z" fill="black"/>
<path id="Vector_7" d="M32.3432 7.85318C33.0696 7.85318 33.6584 7.28091 33.6584 6.57548V5.4068H37.9447C38.6712 5.4068 39.2598 4.83472 39.2598 4.12929C39.2598 3.42367 38.671 2.85159 37.9447 2.85159H33.6584V1.27795C33.6584 0.572324 33.0696 0.000244141 32.3432 0.000244141C31.6167 0.000244141 31.0281 0.572324 31.0281 1.27795V6.57567C31.0281 7.28091 31.6167 7.85318 32.3432 7.85318Z" fill="black"/>
<path id="Vector_8" d="M21.7612 7.85318C22.4877 7.85318 23.0764 7.28091 23.0764 6.57548V5.4068H27.3364C28.0627 5.4068 28.6516 4.83472 28.6516 4.12929C28.6516 3.42367 28.0627 2.85159 27.3364 2.85159H23.0764V1.27795C23.0764 0.572324 22.4875 0.000244141 21.7612 0.000244141C21.0349 0.000244141 20.446 0.572324 20.446 1.27795V6.57567C20.446 7.28091 21.0349 7.85318 21.7612 7.85318Z" fill="black"/>
<path id="Vector_9" d="M21.9129 23.3707C21.1864 23.3707 20.5978 23.9428 20.5978 24.6482V26.8288C20.5978 27.5343 21.1864 28.1065 21.9129 28.1065H28.6558C29.3823 28.1065 29.9709 27.5343 29.9709 26.8288V20.2779C29.9709 19.5725 29.3821 19.0002 28.6558 19.0002H21.9129C21.1864 19.0002 20.5978 19.5725 20.5978 20.2779C20.5978 20.9836 21.1864 21.5556 21.9129 21.5556H27.3406V25.5511H23.2281V24.6484C23.2281 23.9428 22.6393 23.3707 21.9129 23.3707Z" fill="black"/>
<path id="Vector_10" d="M36.0307 23.3707C35.3042 23.3707 34.7156 23.9428 34.7156 24.6482V26.8288C34.7156 27.5343 35.3042 28.1065 36.0307 28.1065H42.7736C43.4997 28.1065 44.0887 27.5343 44.0887 26.8288V20.2779C44.0887 19.5725 43.4997 19.0002 42.7736 19.0002H36.0307C35.3042 19.0002 34.7156 19.5725 34.7156 20.2779C34.7156 20.9836 35.3042 21.5556 36.0307 21.5556H41.4584V25.5511H37.3459V24.6484C37.3459 23.9428 36.7571 23.3707 36.0307 23.3707Z" fill="black"/>
<path id="Vector_11" d="M78.685 19.0001C77.9587 19.0001 77.3699 19.5724 77.3699 20.2778V77.4444H69.5923V16.8344H78.685C79.4112 16.8344 80 16.2623 80 15.5569C80 14.8513 79.4112 14.2792 78.685 14.2792H68.2771C67.551 14.2792 66.9619 14.8513 66.9619 15.5569V78.7225C66.9619 79.4279 67.551 80 68.2771 80H78.685C79.4112 80 80 79.4279 80 78.7225V20.2778C80 19.5724 79.4112 19.0001 78.685 19.0001Z" fill="black"/>
</g>
</svg>
