<svg width="84" height="84" viewBox="0 0 84 84" fill="none" xmlns="http://www.w3.org/2000/svg">
<g id="icon">
<path id="Path 99" d="M61.9074 82H2V2H49.9259L61.9074 13.8033V82Z" stroke="black" stroke-width="2.5" stroke-linecap="round" stroke-linejoin="round"/>
<path id="Path 100" d="M61.9074 13.8033H49.6536V2L61.9074 13.8033Z" stroke="black" stroke-width="2.5" stroke-linecap="round" stroke-linejoin="round"/>
<path id="Line 117" d="M46.9305 30.8524H16.9768" stroke="black" stroke-width="2.5" stroke-miterlimit="10"/>
<path id="Line 118" d="M46.9305 40.0328H16.9768" stroke="black" stroke-width="2.5" stroke-miterlimit="10"/>
<path id="Line 119" d="M46.9305 49.2131H16.9768" stroke="black" stroke-width="2.5" stroke-miterlimit="10"/>
<path id="Line 120" d="M46.9305 30.8524H16.9768" stroke="black" stroke-width="2.5" stroke-miterlimit="10"/>
<path id="Line 121" d="M46.9305 40.0328H16.9768" stroke="black" stroke-width="2.5" stroke-miterlimit="10"/>
<path id="Line 122" d="M46.9305 49.2131H16.9768" stroke="black" stroke-width="2.5" stroke-miterlimit="10"/>
<path id="Path 101" d="M45.1823 71.5016L37.4801 73.3574L39.4053 65.9383L75.0271 31.6262C75.4064 31.2608 75.8567 30.9709 76.3523 30.7732C76.8479 30.5754 77.3791 30.4736 77.9155 30.4736C78.452 30.4736 78.9832 30.5754 79.4788 30.7732C79.9744 30.9709 80.4247 31.2608 80.804 31.6262C81.5698 32.364 82 33.3646 82 34.4079C82 35.4511 81.5698 36.4517 80.804 37.1895L45.1823 71.5016Z" stroke="black" stroke-width="2.5" stroke-linecap="round" stroke-linejoin="round"/>
<path id="Line 123" d="M72.7997 33.4753L78.5767 39.0399" stroke="black" stroke-width="2.5" stroke-miterlimit="10"/>
<path id="Line 124" d="M41.4844 63.3206L47.2614 68.8851" stroke="black" stroke-width="2.5" stroke-miterlimit="10"/>
</g>
</svg>
